# xmcd
#
# Track frame offsets:
# 150
# 20592
# 37967
# 38892
# 39862
#
# Disc length: 545 seconds
#
#
# Revision: 0
# Processed by: cddbd v1.5.2PL0 Copyright (c) Steve Scherf et al.
# Submitted via: FreeRIP 2.40 
#
DISCID=31021f05
DTITLE=Mariah Carey - Loverboy (US Promo)
DYEAR=2001
DGENRE=Hip-Hop
TTITLE0=Loverboy (Remix)
TTITLE1=Loverboy
TTITLE2=Hip Hop Callout Hook #1
TTITLE3=Hip Hop Callout Hook #2
TTITLE4=Hip Hop Callout Hook #3
EXTD=
EXTT0=
EXTT1=
EXTT2=
EXTT3=
EXTT4=
PLAYORDER=
